# xmcd CD database file
#
# Track frame offsets:
#	150
#	13693
#	35988
#	53608
#	64125
#	88723
#	108588
#	128318
#	140048
#	152500
#	188655
#
# Disc length: 2687 seconds
#
# Revision: 0
# Processed by: cddbd v1.5.1PL0 Copyright (c) Steve Scherf et al.
# Submitted via: CDex 1.51
#
DISCID=8f0a7d0b
DTITLE=PLAGUES - CALIFORNIA SORROW KING
DYEAR=1996
DGENRE=Rock
TTITLE0=CALIFORNIA SORROW KING
TTITLE1=481
TTITLE2=JOHNNY LEMONADE SUPERSTAR
TTITLE3=SOUP UP BUG
TTITLE4=TROOP
TTITLE5=I DON'T KNOW
TTITLE6=TWINS DOLPHIN RING
TTITLE7=SILVER CHIPS
TTITLE8=MOUSE
TTITLE9=NOTHING CAN DISTURB US
TTITLE10=SOUP UP BUG 7000CC
EXTD=YEAR: 1996
EXTT0=
EXTT1=
EXTT2=
EXTT3=
EXTT4=
EXTT5=
EXTT6=
EXTT7=
EXTT8=
EXTT9=
EXTT10=
PLAYORDER=
